<svg width="30" height="31" viewBox="0 0 30 31" fill="none" xmlns="http://www.w3.org/2000/svg">
<path fill-rule="evenodd" clip-rule="evenodd" d="M21.6667 0.404449H8.33333C3.73097 0.404449 0 4.13542 0 8.73778V22.0711C0 26.6734 3.73097 30.4044 8.33333 30.4044H21.6667C26.269 30.4044 30 26.6734 30 22.0711V8.73778C30 4.13542 26.269 0.404449 21.6667 0.404449ZM27.0833 22.0711C27.0742 25.0588 24.6543 27.4786 21.6667 27.4878H8.33333C5.34558 27.4786 2.92582 25.0588 2.91667 22.0711V8.73778C2.92582 5.75003 5.34558 3.33027 8.33333 3.32112H21.6667C24.6543 3.33027 27.0742 5.75003 27.0833 8.73778V22.0711ZM22.9167 9.15445C23.8372 9.15445 24.5833 8.40825 24.5833 7.48778C24.5833 6.56732 23.8372 5.82112 22.9167 5.82112C21.9962 5.82112 21.25 6.56732 21.25 7.48778C21.25 8.40825 21.9962 9.15445 22.9167 9.15445ZM15 7.90445C10.8579 7.90445 7.5 11.2623 7.5 15.4044C7.5 19.5466 10.8579 22.9044 15 22.9044C19.1422 22.9044 22.5 19.5466 22.5 15.4044C22.5045 13.4139 21.7157 11.5037 20.3082 10.0962C18.9007 8.68877 16.9905 7.90002 15 7.90445ZM10.4167 15.4044C10.4167 17.9358 12.4687 19.9878 15 19.9878C17.5313 19.9878 19.5833 17.9358 19.5833 15.4044C19.5833 12.8731 17.5313 10.8211 15 10.8211C12.4687 10.8211 10.4167 12.8731 10.4167 15.4044Z" fill="#EFC616"/>
</svg>
