<svg width="154" height="140" viewBox="0 0 154 140" fill="none" xmlns="http://www.w3.org/2000/svg">
<g clip-path="url(#clip0_84_1198)">
<path d="M5.02333 112.296L19.2277 119.456C19.9617 119.83 20.6668 119.945 21.0842 119.111C21.4871 118.32 20.9547 117.889 20.2063 117.515L15.4427 115.114C8.31897 111.52 6.49126 105.956 8.93781 101.111C11.7585 95.5186 17.6878 93.1177 25.5024 97.0569L44.8732 106.833L39.8218 116.81L27.6179 110.643C26.74 110.197 26.0924 110.226 25.7614 110.873C25.3872 111.606 25.7326 112.081 26.6537 112.541L30.122 114.295C37.2458 117.889 39.3469 123.596 36.5982 129.045C34.0941 133.991 27.6467 136.19 20.5229 132.596L-0.0136719 122.23L5.00894 112.296H5.02333Z" fill="white"/>
<path d="M43.5053 122.906C43.3038 110.485 52.1977 105.999 62.0991 105.841L72.3026 105.683L72.5185 119.398L62.7755 119.556C61.3219 119.585 58.8898 120.031 58.9473 123.136C59.0049 126.342 61.5378 126.515 62.8906 126.486L72.6336 126.328L72.8495 139.827L61.8112 140C52.3273 140.158 43.7068 135.328 43.5053 122.906Z" fill="white"/>
<path d="M77.8857 123.136C72.5033 113.403 77.0942 103.066 86.7509 97.7326C96.3644 92.4276 107.734 93.9659 113.116 103.699C118.542 113.533 113.778 123.956 104.165 129.261C94.5079 134.594 83.3113 132.955 77.8857 123.122V123.136ZM98.0625 118.104C100.595 116.71 100.97 113.719 99.5593 111.189C98.1777 108.702 95.5153 107.509 92.968 108.918C90.4351 110.312 90.0177 113.202 91.3849 115.703C92.7809 118.234 95.5009 119.513 98.0482 118.119L98.0625 118.104Z" fill="white"/>
<path d="M102.064 90.8318L113.894 70.1006C118.082 62.7685 124.155 61.9347 130.819 65.7301C136.575 69.008 139.914 75.19 135.726 82.5221L131.826 89.351L139.525 93.7359L131.596 107.638L102.064 90.8318ZM124.285 83.2265C125.263 81.5157 124.285 80.3081 122.975 79.5605C121.622 78.7842 120.083 78.5685 119.104 80.2793L118.312 81.6739L123.493 84.6211L124.285 83.2265Z" fill="white"/>
<path d="M141.18 46.0341V46.1922L152.837 45.991L153.125 61.9778L119.147 62.5816L118.7 37.7963C118.557 29.4147 123.349 25.5473 129.264 25.4467C132.171 25.3892 136.114 25.9499 138.69 30.9242L152.448 23.6927L152.765 41.1317L141.194 46.0485L141.18 46.0341ZM133.639 44.1939C133.61 42.2243 132.2 41.678 130.948 41.7067C129.811 41.7211 128.371 42.3249 128.4 44.2945L128.443 46.4223L133.682 46.3216L133.639 44.1939Z" fill="white"/>
<path d="M116.944 28.2789L110.525 13.6291L141.654 0L148.087 14.6498L116.958 28.2789H116.944Z" fill="white"/>
</g>
<defs>
<clipPath id="clip0_84_1198">
<rect width="153.125" height="140" fill="white"/>
</clipPath>
</defs>
</svg>
