<svg width="212" height="110" viewBox="0 0 212 110" fill="none" xmlns="http://www.w3.org/2000/svg">
<g clip-path="url(#clip0_3_31)">
<path d="M23.6334 0C36.7261 0 47.3966 5.66214 47.3966 21.4124V41.286H27.2328V34.1485H20.1617V41.286H0V21.4124C0 5.72141 10.4086 0 23.6334 0ZM27.2349 21.5352V18.9507C27.2349 16.9822 26.1876 15.1978 23.6994 15.1978C21.2111 15.1978 20.1638 16.9208 20.1638 18.9507V21.5352H27.2349Z" fill="black"/>
<path d="M50.4021 0.922852H80.9895C91.0746 0.922852 96.9047 6.70564 96.9047 15.8116C96.9047 23.6878 91.0746 30.7639 80.9895 30.7639H69.5208V41.286H50.4021V0.922852ZM72.8158 19.3804C75.1679 19.3804 75.8469 17.6574 75.8469 15.873C75.8469 14.0886 75.1657 12.3043 72.8158 12.3043H69.5208V19.3804H72.8158Z" fill="black"/>
<path d="M99.2588 0.922852H141.523V13.2293H118.377V16.182H140.719V26.0268H118.377V28.9795H142.39V41.286H99.2588V0.922852Z" fill="black"/>
<path d="M189.539 0C201.853 0 212 5.66214 212 21.4124V41.286H192.881V19.9963C192.881 18.0278 191.953 16.2435 189.539 16.2435C187.126 16.2435 186.259 17.9664 186.259 19.9963V41.286H167.202V21.4124C167.202 5.72141 176.979 0 189.539 0Z" fill="black"/>
<path d="M145.881 0.922852H164.689V23.074H145.881V0.922852Z" fill="black"/>
<path d="M0.342773 46.7301H23.9165C35.6108 46.7301 46.5005 53.313 46.5005 66.9106C46.5005 80.5082 35.5491 87.0911 23.8548 87.0911H0.342773V46.728V46.7301ZM22.5564 72.7569C24.7211 72.7569 26.8263 70.7249 26.8263 66.9106C26.8263 63.0964 24.7233 61.0643 22.5564 61.0643H19.4636V72.7548H22.5564V72.7569Z" fill="black"/>
<path d="M48.3586 66.8492C48.3586 53.6199 58.5587 45.4982 71.0427 45.4982C83.5267 45.4982 93.9012 53.6199 93.9012 66.8492C93.9012 80.0785 83.4671 88.323 71.0427 88.323C58.6183 88.323 48.3586 80.2013 48.3586 66.8492ZM71.1023 73.1866C74.3845 73.1866 76.3768 70.2952 76.3768 66.8492C76.3768 63.4032 74.3845 60.696 71.1023 60.696C67.82 60.696 65.8277 63.4646 65.8277 66.8492C65.8277 70.2338 67.82 73.1866 71.1023 73.1866Z" fill="black"/>
<path d="M96.2555 66.6037V46.7301H114.991V68.0811C114.991 70.0497 115.964 71.7726 118.216 71.7726C120.589 71.7726 121.5 69.9883 121.5 68.0811V46.7301H139.384V68.0811C139.384 69.9883 140.357 71.7726 142.669 71.7726C144.98 71.7726 145.953 70.0497 145.953 68.0811V46.7301H164.689V66.6037C164.689 82.2947 155.989 88.0161 145.102 88.0161C139.201 88.0161 133.239 85.0633 130.502 78.6011C127.703 85.0612 121.743 88.0161 115.84 88.0161C104.953 88.0161 96.2534 82.2947 96.2534 66.6037H96.2555Z" fill="black"/>
<path d="M189.539 45.8073C201.853 45.8073 212 51.4694 212 67.2197V87.0932H192.881V65.8036C192.881 63.8351 191.953 62.0507 189.539 62.0507C187.126 62.0507 186.259 63.7737 186.259 65.8036V87.0932H167.202V67.2197C167.202 51.5287 176.979 45.8073 189.539 45.8073Z" fill="black"/>
<path d="M4.69136 107.866C4.69136 109.028 3.76118 110 2.56919 110C1.3772 110 0.447021 109.028 0.447021 107.866V93.7142C0.447021 92.5522 1.40061 91.6039 2.56919 91.6039C3.73777 91.6039 4.69136 92.5522 4.69136 93.7142V107.866Z" fill="black"/>
<path d="M17.1838 102.934L18.7568 107.06C18.8526 107.32 18.9718 107.606 18.9718 107.913C18.9718 109.052 18.0651 110 16.922 110C15.8726 110 15.1809 109.335 14.8956 108.506L13.2992 103.978H11.5581V107.866C11.5581 109.028 10.6279 110 9.43589 110C8.2439 110 7.31372 109.028 7.31372 107.866V93.9513C7.31372 92.7892 8.26731 91.8409 9.43589 91.8409H13.4887C17.5883 91.8409 19.4018 94.5672 19.4018 97.9095C19.4018 100.02 18.6866 101.844 17.1838 102.934ZM11.5581 95.3483V100.517H12.5117C14.4912 100.517 15.1575 99.7595 15.1575 97.9095C15.1575 96.2034 14.538 95.3483 12.4882 95.3483H11.5581Z" fill="black"/>
<path d="M31.3196 102.934L32.8926 107.06C32.9884 107.32 33.1076 107.606 33.1076 107.913C33.1076 109.052 32.2008 110 31.0578 110C30.0084 110 29.3166 109.335 29.0314 108.506L27.435 103.978H25.6938V107.866C25.6938 109.028 24.7636 110 23.5716 110C22.3796 110 21.4495 109.028 21.4495 107.866V93.9513C21.4495 92.7892 22.4031 91.8409 23.5716 91.8409H27.6244C31.724 91.8409 33.5375 94.5672 33.5375 97.9095C33.5375 100.02 32.8223 101.844 31.3196 102.934ZM25.6938 95.3483V100.517H26.6474C28.627 100.517 29.2932 99.7595 29.2932 97.9095C29.2932 96.2034 28.6738 95.3483 26.624 95.3483H25.6938Z" fill="black"/>
<path d="M39.8317 107.866C39.8317 109.028 38.9016 110 37.7096 110C36.5176 110 35.5874 109.028 35.5874 107.866V93.7142C35.5874 92.5522 36.541 91.6039 37.7096 91.6039C38.8782 91.6039 39.8317 92.5522 39.8317 93.7142V107.866Z" fill="black"/>
<path d="M45.1233 107.557L41.5708 94.4466C41.475 94.0445 41.4516 93.782 41.475 93.5703C41.5708 92.4569 42.5009 91.6018 43.6206 91.6018C44.7402 91.6018 45.5512 92.313 45.7661 93.2613L48.1969 104.475L50.747 93.1914C50.9619 92.2432 51.724 91.6039 52.8202 91.6039C53.9164 91.6039 54.7508 92.3151 54.8466 93.3354C54.87 93.691 54.8231 93.9513 54.7274 94.2604L50.8172 107.583C50.483 108.65 49.9104 110 47.933 110C45.9556 110 45.4767 108.838 45.1191 107.557H45.1233Z" fill="black"/>
<path d="M60.5468 95.4203V99.0229H64.408C65.385 99.0229 66.1726 99.7806 66.1726 100.754C66.1726 101.728 65.385 102.486 64.408 102.486H60.5468V106.16H65.1232C66.1258 106.16 66.9346 106.944 66.9346 107.938C66.9346 108.933 66.1237 109.74 65.1232 109.74H58.4247C57.2561 109.74 56.3025 108.768 56.3025 107.606V93.9513C56.3025 92.7892 57.2561 91.8409 58.4247 91.8409H65.1232C66.1258 91.8409 66.9346 92.6241 66.9346 93.619C66.9346 94.6138 66.1237 95.4203 65.1232 95.4203H60.5468Z" fill="black"/>
<path d="M78.8333 102.934L80.4063 107.06C80.502 107.32 80.6212 107.606 80.6212 107.913C80.6212 109.052 79.7145 110 78.5714 110C77.5221 110 76.8303 109.335 76.5451 108.506L74.9486 103.978H73.2075V107.866C73.2075 109.028 72.2773 110 71.0853 110C69.8933 110 68.9631 109.028 68.9631 107.866V93.9513C68.9631 92.7892 69.9167 91.8409 71.0853 91.8409H75.1381C79.2377 91.8409 81.0512 94.5672 81.0512 97.9095C81.0512 100.02 80.336 101.844 78.8333 102.934ZM73.2075 95.3483V100.517H74.1611C76.1406 100.517 76.8069 99.7595 76.8069 97.9095C76.8069 96.2034 76.1875 95.3483 74.1377 95.3483H73.2075Z" fill="black"/>
<path d="M87.3432 95.4203V99.0229H91.2044C92.1814 99.0229 92.969 99.7806 92.969 100.754C92.969 101.728 92.1814 102.486 91.2044 102.486H87.3432V106.16H91.9196C92.92 106.16 93.731 106.944 93.731 107.938C93.731 108.933 92.92 109.74 91.9196 109.74H85.221C84.0525 109.74 83.0989 108.768 83.0989 107.606V93.9513C83.0989 92.7892 84.0525 91.8409 85.221 91.8409H91.9196C92.92 91.8409 93.731 92.6241 93.731 93.619C93.731 94.6138 92.92 95.4203 91.9196 95.4203H87.3432Z" fill="black"/>
<path d="M99.5015 99.1182L99.6207 103.599V107.962C99.6207 109.075 98.8097 110 97.6901 110C96.5705 110 95.7595 109.075 95.7595 107.962V93.6423C95.7595 92.622 96.4023 91.6039 97.9519 91.6039C98.8097 91.6039 99.6207 91.9595 100.098 92.8358L104.961 102.223L104.865 97.6238V93.5936C104.865 92.5035 105.676 91.6018 106.796 91.6018C107.916 91.6018 108.727 92.5035 108.727 93.5936V108.078C108.727 109.098 107.965 109.998 106.534 109.998C105.485 109.998 104.819 109.452 104.365 108.622L99.5015 99.116V99.1182Z" fill="black"/>
<path d="M118.216 95.4203V107.866C118.216 109.028 117.262 110 116.094 110C114.925 110 113.972 109.028 113.972 107.866V95.4203H112.041C111.041 95.4203 110.253 94.6138 110.253 93.619C110.253 92.6241 111.041 91.8409 112.041 91.8409H120.17C121.17 91.8409 121.981 92.6241 121.981 93.619C121.981 94.6138 121.17 95.4203 120.17 95.4203H118.216Z" fill="black"/>
<path d="M127.752 107.866C127.752 109.028 126.821 110 125.63 110C124.438 110 123.507 109.028 123.507 107.866V93.7142C123.507 92.5522 124.461 91.6039 125.63 91.6039C126.798 91.6039 127.752 92.5522 127.752 93.7142V107.866Z" fill="black"/>
<path d="M135.742 106.088C136.004 105.898 136.362 105.805 136.719 105.805C137.362 105.805 138.365 106.302 139.222 106.302C141.321 106.302 141.845 105.663 141.845 104.501C141.845 103.434 141.296 102.913 140.033 102.604L138.437 102.295C135.887 101.726 134.814 99.8781 134.814 97.2449C134.814 93.2867 137.532 91.6018 141.108 91.6018C142.134 91.6018 143.803 91.7923 144.757 92.5035C145.233 92.8591 145.544 93.3798 145.544 94.0677C145.544 95.2764 144.663 96.0363 143.352 95.7505C142.756 95.632 142.017 95.3483 141.349 95.3483C139.846 95.3483 138.988 95.7992 138.988 96.9845C138.988 98.0514 139.631 98.5255 140.681 98.7858L142.158 99.0949C145.019 99.8061 146.019 101.726 146.019 104.215C146.019 108.269 143.277 109.977 139.582 109.977C138.675 109.977 137.102 109.858 136.125 109.266C135.483 108.91 135.029 108.364 135.029 107.56C135.029 106.872 135.314 106.351 135.744 106.091L135.742 106.088Z" fill="black"/>
<path d="M147.613 99.0462C147.613 94.1397 149.687 91.6018 154.097 91.6018C158.507 91.6018 160.487 94.163 160.487 99.0462V102.674C160.487 107.557 158.507 110 154.097 110C149.687 110 147.613 107.583 147.613 102.674V99.0462ZM151.858 103.076C151.858 104.996 152.119 106.419 154.076 106.419C156.032 106.419 156.245 105.019 156.245 103.076V98.644C156.245 96.557 156.102 95.1346 154.076 95.1346C152.049 95.1346 151.858 96.557 151.858 98.644V103.076Z" fill="black"/>
<path d="M171.526 105.898C171.741 105.875 171.956 105.898 172.145 105.921C172.933 106.063 173.48 106.679 173.48 107.557C173.48 108.269 173.122 108.815 172.573 109.17C171.666 109.786 170.236 110 168.878 110C164.801 110 162.417 107.89 162.417 102.604V99.1668C162.417 93.928 164.874 91.6039 169.069 91.6039C169.976 91.6039 171.215 91.7224 172.122 92.15C172.956 92.5056 173.575 93.0983 173.575 94.0698C173.575 94.9461 172.956 95.6108 172.145 95.6827C171.953 95.706 171.764 95.706 171.572 95.6827C171.023 95.5875 170.453 95.3039 169.712 95.3039C167.639 95.3039 166.66 96.1569 166.66 98.7646V102.96C166.66 105.733 167.947 106.279 169.687 106.279C170.329 106.279 170.951 105.995 171.521 105.9L171.526 105.898Z" fill="black"/>
<path d="M179.393 107.866C179.393 109.028 178.462 110 177.27 110C176.078 110 175.148 109.028 175.148 107.866V93.7142C175.148 92.5522 176.102 91.6039 177.27 91.6039C178.439 91.6039 179.393 92.5522 179.393 93.7142V107.866Z" fill="black"/>
<path d="M189.548 106.681H185.184L184.78 108.387C184.542 109.335 183.803 110 182.777 110C181.608 110 180.678 108.98 180.823 107.82C180.823 107.629 180.919 107.274 180.966 107.109L184.803 93.9979C185.208 92.7893 185.829 91.6272 187.783 91.6272C189.737 91.6272 190.333 92.7173 190.668 93.9746L194.052 106.941C194.148 107.25 194.171 107.534 194.171 107.606C194.29 108.887 193.313 110 192.026 110C190.976 110 190.095 109.266 189.88 108.317L189.546 106.681H189.548ZM185.972 103.316H188.833L187.498 96.8681L185.972 103.316Z" fill="black"/>
<path d="M195.865 93.7121C195.865 92.5501 196.819 91.5785 197.988 91.5785C199.156 91.5785 200.11 92.5501 200.11 93.7121V106.158H204.116C205.116 106.158 205.927 106.965 205.927 107.96C205.927 108.954 205.116 109.738 204.116 109.738H197.99C196.821 109.738 195.868 108.789 195.868 107.627V93.7121H195.865Z" fill="black"/>
<path d="M211.551 107.866C211.551 109.028 210.621 110 209.429 110C208.237 110 207.307 109.028 207.307 107.866V93.7142C207.307 92.5522 208.26 91.6039 209.429 91.6039C210.597 91.6039 211.551 92.5522 211.551 93.7142V107.866Z" fill="black"/>
</g>
<defs>
<clipPath id="clip0_3_31">
<rect width="212" height="110" fill="white"/>
</clipPath>
</defs>
</svg>
